<?xml version="1.0" standalone="no"?>
<!DOCTYPE svg PUBLIC "-//W3C//DTD SVG 20010904//EN"
 "http://www.w3.org/TR/2001/REC-SVG-20010904/DTD/svg10.dtd">
<svg version="1.0" xmlns="http://www.w3.org/2000/svg"
 width="256.000000pt" height="42.000000pt" viewBox="0 0 256.000000 42.000000"
 preserveAspectRatio="xMidYMid meet">
<metadata>
Created by potrace 1.15, written by Peter Selinger 2001-2017
</metadata>
<g transform="translate(0.000000,42.000000) scale(0.100000,-0.100000)"
fill="#000000" stroke="none">
<path d="M0 210 l0 -210 1280 0 1280 0 0 210 0 210 -1280 0 -1280 0 0 -210z
m174 113 c-4 -16 -11 -38 -15 -51 -5 -13 -9 -24 -9 -26 0 -1 13 -1 28 2 34 5
55 -17 54 -58 -2 -67 -56 -120 -124 -120 -61 0 -63 7 -29 117 34 109 38 143
19 144 -23 1 26 18 55 18 25 1 27 -1 21 -26z m876 25 c0 -2 -16 -52 -35 -113
-41 -128 -40 -126 -17 -118 13 5 11 0 -7 -20 -27 -30 -58 -35 -68 -12 -5 14
-7 14 -23 0 -10 -9 -29 -15 -42 -13 -18 2 -24 10 -26 37 -7 67 50 141 108 141
25 0 30 5 36 34 3 19 3 39 0 44 -3 6 0 13 6 15 13 6 68 9 68 5z m550 -23 c16
-20 5 -45 -20 -45 -13 0 -20 7 -20 20 0 11 -4 20 -10 20 -5 0 -10 -16 -10 -35
0 -24 5 -35 15 -35 8 0 15 -4 15 -10 0 -5 -7 -10 -15 -10 -24 0 -21 -135 3
-149 13 -8 1 -10 -48 -10 -49 0 -61 2 -47 10 23 14 26 149 2 149 -8 0 -15 5
-15 10 0 6 7 10 15 10 9 0 15 9 15 25 0 14 9 34 20 45 24 24 82 27 100 5z
m270 -33 l0 -48 34 4 c49 6 76 -24 76 -83 0 -35 -6 -52 -25 -70 -21 -22 -32
-25 -90 -22 l-65 2 0 127 c0 92 -3 128 -12 131 -7 3 8 6 35 6 l47 1 0 -48z
m-1291 -103 c-23 -75 -23 -80 -1 -72 13 5 11 0 -7 -20 -28 -30 -71 -37 -71
-10 0 15 -2 15 -19 -1 -24 -22 -62 -17 -71 9 -11 30 14 96 49 126 24 22 39 27
84 28 l55 0 -19 -60z m125 34 l-7 -28 30 28 c32 29 70 36 79 12 3 -8 -3 -42
-15 -76 -16 -47 -17 -58 -5 -49 23 20 28 4 5 -19 -12 -12 -32 -21 -46 -21 -20
0 -25 5 -25 25 0 14 7 42 15 62 23 55 18 60 -20 23 -20 -19 -41 -51 -47 -72
-9 -32 -15 -38 -40 -38 -15 0 -28 2 -28 3 0 2 9 30 20 62 23 67 25 95 8 96
-23 1 26 18 55 18 25 1 27 -1 21 -26z m490 11 c51 -50 -25 -164 -109 -164 -41
0 -55 16 -55 63 0 32 7 46 39 78 30 31 46 39 74 39 20 0 43 -7 51 -16z m132
-10 l-7 -27 31 27 c36 29 68 34 77 10 3 -9 -1 -40 -11 -68 -18 -59 -20 -78 -6
-56 5 8 13 11 17 6 12 -11 -35 -46 -63 -46 -29 0 -31 18 -9 80 8 23 15 48 15
54 -1 21 -77 -74 -83 -104 -6 -25 -11 -30 -36 -30 l-30 0 15 52 c9 28 20 62
25 75 7 18 5 25 -8 30 -15 6 -14 7 3 14 10 4 32 8 48 8 26 1 28 -1 22 -25z
m406 9 c13 -12 18 -31 18 -75 0 -36 4 -58 11 -58 8 0 8 -5 -1 -15 -14 -17 -56
-20 -65 -5 -4 7 -12 7 -25 0 -44 -23 -88 0 -75 39 3 12 26 33 51 47 45 27 48
31 38 58 -11 28 -35 19 -32 -11 2 -22 -2 -29 -20 -31 -33 -5 -41 26 -13 50 29
22 88 24 113 1z m529 7 c15 -9 19 -22 19 -68 0 -33 5 -63 12 -70 10 -10 10
-15 -2 -22 -19 -12 -57 -13 -64 -1 -4 5 -18 5 -35 -2 -37 -14 -61 -3 -61 27 0
25 35 60 71 71 15 5 19 14 17 33 -4 35 -33 36 -33 2 0 -31 -41 -42 -52 -14
-15 39 77 71 128 44z m230 -7 c7 -8 15 -48 18 -89 l7 -74 -101 1 c-55 0 -94 3
-87 6 8 3 12 30 12 83 0 53 -4 80 -12 83 -7 3 24 5 69 5 60 0 86 -4 94 -15z"/>
</g>
</svg>
